<mxfile host="Electron" modified="2024-04-18T02:11:29.546Z" agent="Mozilla/5.0 (Windows NT 10.0; Win64; x64) AppleWebKit/537.36 (KHTML, like Gecko) draw.io/24.2.5 Chrome/120.0.6099.109 Electron/28.1.0 Safari/537.36" etag="pkDGow1k4GYG7rdFy9GS" version="24.2.5" type="device">
  <diagram id="R2lEEEUBdFMjLlhIrx00" name="Page-1">
    <mxGraphModel dx="3507" dy="1520" grid="1" gridSize="10" guides="1" tooltips="1" connect="1" arrows="1" fold="1" page="1" pageScale="1" pageWidth="900" pageHeight="1600" math="0" shadow="0" extFonts="Permanent Marker^https://fonts.googleapis.com/css?family=Permanent+Marker">
      <root>
        <mxCell id="0" />
        <mxCell id="1" parent="0" />
        <mxCell id="THiAGr0LOXGZYbE1Zooo-1" value="Accounts" style="whiteSpace=wrap;html=1;align=center;" vertex="1" parent="1">
          <mxGeometry x="60" y="180" width="100" height="40" as="geometry" />
        </mxCell>
        <mxCell id="THiAGr0LOXGZYbE1Zooo-2" value="Patients" style="whiteSpace=wrap;html=1;align=center;" vertex="1" parent="1">
          <mxGeometry x="-540" y="300" width="100" height="40" as="geometry" />
        </mxCell>
        <mxCell id="THiAGr0LOXGZYbE1Zooo-13" value="" style="edgeStyle=orthogonalEdgeStyle;rounded=0;orthogonalLoop=1;jettySize=auto;html=1;" edge="1" parent="1" source="THiAGr0LOXGZYbE1Zooo-3" target="THiAGr0LOXGZYbE1Zooo-2">
          <mxGeometry relative="1" as="geometry" />
        </mxCell>
        <mxCell id="THiAGr0LOXGZYbE1Zooo-3" value="patient_id" style="ellipse;whiteSpace=wrap;html=1;align=center;fontStyle=4;" vertex="1" parent="1">
          <mxGeometry x="-700" y="300" width="60" height="40" as="geometry" />
        </mxCell>
        <mxCell id="THiAGr0LOXGZYbE1Zooo-20" style="edgeStyle=orthogonalEdgeStyle;rounded=0;orthogonalLoop=1;jettySize=auto;html=1;exitX=0.5;exitY=1;exitDx=0;exitDy=0;" edge="1" parent="1" source="THiAGr0LOXGZYbE1Zooo-5" target="THiAGr0LOXGZYbE1Zooo-2">
          <mxGeometry relative="1" as="geometry" />
        </mxCell>
        <mxCell id="THiAGr0LOXGZYbE1Zooo-5" value="email" style="ellipse;whiteSpace=wrap;html=1;align=center;" vertex="1" parent="1">
          <mxGeometry x="-510" y="100" width="40" height="40" as="geometry" />
        </mxCell>
        <mxCell id="THiAGr0LOXGZYbE1Zooo-19" style="edgeStyle=orthogonalEdgeStyle;rounded=0;orthogonalLoop=1;jettySize=auto;html=1;exitX=1;exitY=0.5;exitDx=0;exitDy=0;entryX=0;entryY=0;entryDx=0;entryDy=0;" edge="1" parent="1" source="THiAGr0LOXGZYbE1Zooo-6" target="THiAGr0LOXGZYbE1Zooo-2">
          <mxGeometry relative="1" as="geometry" />
        </mxCell>
        <mxCell id="THiAGr0LOXGZYbE1Zooo-6" value="phone_number" style="ellipse;whiteSpace=wrap;html=1;align=center;" vertex="1" parent="1">
          <mxGeometry x="-730" y="150" width="90" height="40" as="geometry" />
        </mxCell>
        <mxCell id="THiAGr0LOXGZYbE1Zooo-18" style="edgeStyle=orthogonalEdgeStyle;rounded=0;orthogonalLoop=1;jettySize=auto;html=1;exitX=0.5;exitY=0;exitDx=0;exitDy=0;entryX=1;entryY=1;entryDx=0;entryDy=0;" edge="1" parent="1" source="THiAGr0LOXGZYbE1Zooo-7" target="THiAGr0LOXGZYbE1Zooo-2">
          <mxGeometry relative="1" as="geometry" />
        </mxCell>
        <mxCell id="THiAGr0LOXGZYbE1Zooo-7" value="address" style="ellipse;whiteSpace=wrap;html=1;align=center;" vertex="1" parent="1">
          <mxGeometry x="-500" y="540" width="50" height="40" as="geometry" />
        </mxCell>
        <mxCell id="THiAGr0LOXGZYbE1Zooo-17" style="edgeStyle=orthogonalEdgeStyle;rounded=0;orthogonalLoop=1;jettySize=auto;html=1;exitX=0.5;exitY=0;exitDx=0;exitDy=0;entryX=0;entryY=1;entryDx=0;entryDy=0;" edge="1" parent="1" source="THiAGr0LOXGZYbE1Zooo-8" target="THiAGr0LOXGZYbE1Zooo-2">
          <mxGeometry relative="1" as="geometry" />
        </mxCell>
        <mxCell id="THiAGr0LOXGZYbE1Zooo-8" value="gender" style="ellipse;whiteSpace=wrap;html=1;align=center;" vertex="1" parent="1">
          <mxGeometry x="-640" y="490" width="40" height="40" as="geometry" />
        </mxCell>
        <mxCell id="THiAGr0LOXGZYbE1Zooo-16" value="" style="edgeStyle=orthogonalEdgeStyle;rounded=0;orthogonalLoop=1;jettySize=auto;html=1;" edge="1" parent="1" source="THiAGr0LOXGZYbE1Zooo-9" target="THiAGr0LOXGZYbE1Zooo-2">
          <mxGeometry relative="1" as="geometry" />
        </mxCell>
        <mxCell id="THiAGr0LOXGZYbE1Zooo-9" value="date_of_birth" style="ellipse;whiteSpace=wrap;html=1;align=center;" vertex="1" parent="1">
          <mxGeometry x="-580" y="520" width="70" height="40" as="geometry" />
        </mxCell>
        <mxCell id="THiAGr0LOXGZYbE1Zooo-15" style="edgeStyle=orthogonalEdgeStyle;rounded=0;orthogonalLoop=1;jettySize=auto;html=1;exitX=1;exitY=0.5;exitDx=0;exitDy=0;entryX=0;entryY=0.75;entryDx=0;entryDy=0;" edge="1" parent="1" source="THiAGr0LOXGZYbE1Zooo-10" target="THiAGr0LOXGZYbE1Zooo-2">
          <mxGeometry relative="1" as="geometry" />
        </mxCell>
        <mxCell id="THiAGr0LOXGZYbE1Zooo-10" value="last_name" style="ellipse;whiteSpace=wrap;html=1;align=center;" vertex="1" parent="1">
          <mxGeometry x="-700" y="380" width="60" height="40" as="geometry" />
        </mxCell>
        <mxCell id="THiAGr0LOXGZYbE1Zooo-14" style="edgeStyle=orthogonalEdgeStyle;rounded=0;orthogonalLoop=1;jettySize=auto;html=1;exitX=1;exitY=0.5;exitDx=0;exitDy=0;entryX=0;entryY=0.25;entryDx=0;entryDy=0;" edge="1" parent="1" source="THiAGr0LOXGZYbE1Zooo-11" target="THiAGr0LOXGZYbE1Zooo-2">
          <mxGeometry relative="1" as="geometry" />
        </mxCell>
        <mxCell id="THiAGr0LOXGZYbE1Zooo-11" value="first_name" style="ellipse;whiteSpace=wrap;html=1;align=center;" vertex="1" parent="1">
          <mxGeometry x="-700" y="220" width="60" height="40" as="geometry" />
        </mxCell>
        <mxCell id="THiAGr0LOXGZYbE1Zooo-38" value="Doctors" style="whiteSpace=wrap;html=1;align=center;" vertex="1" parent="1">
          <mxGeometry x="-510" y="840" width="100" height="40" as="geometry" />
        </mxCell>
        <mxCell id="THiAGr0LOXGZYbE1Zooo-39" value="" style="edgeStyle=orthogonalEdgeStyle;rounded=0;orthogonalLoop=1;jettySize=auto;html=1;" edge="1" parent="1" source="THiAGr0LOXGZYbE1Zooo-40" target="THiAGr0LOXGZYbE1Zooo-38">
          <mxGeometry relative="1" as="geometry" />
        </mxCell>
        <mxCell id="THiAGr0LOXGZYbE1Zooo-40" value="doctor_id" style="ellipse;whiteSpace=wrap;html=1;align=center;fontStyle=4;" vertex="1" parent="1">
          <mxGeometry x="-670" y="840" width="60" height="40" as="geometry" />
        </mxCell>
        <mxCell id="THiAGr0LOXGZYbE1Zooo-41" style="edgeStyle=orthogonalEdgeStyle;rounded=0;orthogonalLoop=1;jettySize=auto;html=1;exitX=0.5;exitY=1;exitDx=0;exitDy=0;" edge="1" parent="1" source="THiAGr0LOXGZYbE1Zooo-42" target="THiAGr0LOXGZYbE1Zooo-38">
          <mxGeometry relative="1" as="geometry" />
        </mxCell>
        <mxCell id="THiAGr0LOXGZYbE1Zooo-42" value="email" style="ellipse;whiteSpace=wrap;html=1;align=center;" vertex="1" parent="1">
          <mxGeometry x="-480" y="640" width="40" height="40" as="geometry" />
        </mxCell>
        <mxCell id="THiAGr0LOXGZYbE1Zooo-43" style="edgeStyle=orthogonalEdgeStyle;rounded=0;orthogonalLoop=1;jettySize=auto;html=1;exitX=1;exitY=0.5;exitDx=0;exitDy=0;entryX=0;entryY=0;entryDx=0;entryDy=0;" edge="1" parent="1" source="THiAGr0LOXGZYbE1Zooo-44" target="THiAGr0LOXGZYbE1Zooo-38">
          <mxGeometry relative="1" as="geometry" />
        </mxCell>
        <mxCell id="THiAGr0LOXGZYbE1Zooo-44" value="phone_number" style="ellipse;whiteSpace=wrap;html=1;align=center;" vertex="1" parent="1">
          <mxGeometry x="-700" y="690" width="90" height="40" as="geometry" />
        </mxCell>
        <mxCell id="THiAGr0LOXGZYbE1Zooo-45" style="edgeStyle=orthogonalEdgeStyle;rounded=0;orthogonalLoop=1;jettySize=auto;html=1;exitX=0.5;exitY=0;exitDx=0;exitDy=0;entryX=1;entryY=1;entryDx=0;entryDy=0;" edge="1" parent="1" source="THiAGr0LOXGZYbE1Zooo-46" target="THiAGr0LOXGZYbE1Zooo-38">
          <mxGeometry relative="1" as="geometry" />
        </mxCell>
        <mxCell id="THiAGr0LOXGZYbE1Zooo-46" value="rating" style="ellipse;whiteSpace=wrap;html=1;align=center;" vertex="1" parent="1">
          <mxGeometry x="-470" y="1150" width="50" height="40" as="geometry" />
        </mxCell>
        <mxCell id="THiAGr0LOXGZYbE1Zooo-47" style="edgeStyle=orthogonalEdgeStyle;rounded=0;orthogonalLoop=1;jettySize=auto;html=1;exitX=0.5;exitY=0;exitDx=0;exitDy=0;entryX=0;entryY=1;entryDx=0;entryDy=0;" edge="1" parent="1" source="THiAGr0LOXGZYbE1Zooo-48" target="THiAGr0LOXGZYbE1Zooo-38">
          <mxGeometry relative="1" as="geometry" />
        </mxCell>
        <mxCell id="THiAGr0LOXGZYbE1Zooo-48" value="gender" style="ellipse;whiteSpace=wrap;html=1;align=center;" vertex="1" parent="1">
          <mxGeometry x="-600" y="1040" width="40" height="40" as="geometry" />
        </mxCell>
        <mxCell id="THiAGr0LOXGZYbE1Zooo-49" value="" style="edgeStyle=orthogonalEdgeStyle;rounded=0;orthogonalLoop=1;jettySize=auto;html=1;" edge="1" parent="1" source="THiAGr0LOXGZYbE1Zooo-50" target="THiAGr0LOXGZYbE1Zooo-38">
          <mxGeometry relative="1" as="geometry" />
        </mxCell>
        <mxCell id="THiAGr0LOXGZYbE1Zooo-50" value="hospital_id" style="ellipse;whiteSpace=wrap;html=1;align=center;" vertex="1" parent="1">
          <mxGeometry x="-550" y="1100" width="70" height="40" as="geometry" />
        </mxCell>
        <mxCell id="THiAGr0LOXGZYbE1Zooo-51" style="edgeStyle=orthogonalEdgeStyle;rounded=0;orthogonalLoop=1;jettySize=auto;html=1;exitX=1;exitY=0.5;exitDx=0;exitDy=0;entryX=0;entryY=0.75;entryDx=0;entryDy=0;" edge="1" parent="1" source="THiAGr0LOXGZYbE1Zooo-52" target="THiAGr0LOXGZYbE1Zooo-38">
          <mxGeometry relative="1" as="geometry" />
        </mxCell>
        <mxCell id="THiAGr0LOXGZYbE1Zooo-52" value="last_name" style="ellipse;whiteSpace=wrap;html=1;align=center;" vertex="1" parent="1">
          <mxGeometry x="-670" y="920" width="60" height="40" as="geometry" />
        </mxCell>
        <mxCell id="THiAGr0LOXGZYbE1Zooo-53" style="edgeStyle=orthogonalEdgeStyle;rounded=0;orthogonalLoop=1;jettySize=auto;html=1;exitX=1;exitY=0.5;exitDx=0;exitDy=0;entryX=0;entryY=0.25;entryDx=0;entryDy=0;" edge="1" parent="1" source="THiAGr0LOXGZYbE1Zooo-54" target="THiAGr0LOXGZYbE1Zooo-38">
          <mxGeometry relative="1" as="geometry" />
        </mxCell>
        <mxCell id="THiAGr0LOXGZYbE1Zooo-54" value="first_name" style="ellipse;whiteSpace=wrap;html=1;align=center;" vertex="1" parent="1">
          <mxGeometry x="-670" y="760" width="60" height="40" as="geometry" />
        </mxCell>
        <mxCell id="THiAGr0LOXGZYbE1Zooo-56" style="edgeStyle=orthogonalEdgeStyle;rounded=0;orthogonalLoop=1;jettySize=auto;html=1;exitX=0.5;exitY=0;exitDx=0;exitDy=0;entryX=1;entryY=0.75;entryDx=0;entryDy=0;" edge="1" parent="1" source="THiAGr0LOXGZYbE1Zooo-55" target="THiAGr0LOXGZYbE1Zooo-38">
          <mxGeometry relative="1" as="geometry" />
        </mxCell>
        <mxCell id="THiAGr0LOXGZYbE1Zooo-55" value="department_id" style="ellipse;whiteSpace=wrap;html=1;align=center;" vertex="1" parent="1">
          <mxGeometry x="-400" y="1100" width="80" height="40" as="geometry" />
        </mxCell>
        <mxCell id="THiAGr0LOXGZYbE1Zooo-59" value="" style="edgeStyle=orthogonalEdgeStyle;rounded=0;orthogonalLoop=1;jettySize=auto;html=1;" edge="1" parent="1" source="THiAGr0LOXGZYbE1Zooo-58" target="THiAGr0LOXGZYbE1Zooo-1">
          <mxGeometry relative="1" as="geometry" />
        </mxCell>
        <mxCell id="THiAGr0LOXGZYbE1Zooo-58" value="account_id" style="ellipse;whiteSpace=wrap;html=1;align=center;fontStyle=4;" vertex="1" parent="1">
          <mxGeometry x="-100" y="180" width="70" height="40" as="geometry" />
        </mxCell>
        <mxCell id="THiAGr0LOXGZYbE1Zooo-70" style="edgeStyle=orthogonalEdgeStyle;rounded=0;orthogonalLoop=1;jettySize=auto;html=1;exitX=0;exitY=0.5;exitDx=0;exitDy=0;entryX=0.75;entryY=0;entryDx=0;entryDy=0;" edge="1" parent="1" source="THiAGr0LOXGZYbE1Zooo-60" target="THiAGr0LOXGZYbE1Zooo-1">
          <mxGeometry relative="1" as="geometry" />
        </mxCell>
        <mxCell id="THiAGr0LOXGZYbE1Zooo-60" value="profile_url" style="ellipse;whiteSpace=wrap;html=1;align=center;" vertex="1" parent="1">
          <mxGeometry x="240" y="60" width="100" height="40" as="geometry" />
        </mxCell>
        <mxCell id="THiAGr0LOXGZYbE1Zooo-72" style="edgeStyle=orthogonalEdgeStyle;rounded=0;orthogonalLoop=1;jettySize=auto;html=1;exitX=0;exitY=0.5;exitDx=0;exitDy=0;entryX=1;entryY=0.25;entryDx=0;entryDy=0;" edge="1" parent="1" source="THiAGr0LOXGZYbE1Zooo-61" target="THiAGr0LOXGZYbE1Zooo-1">
          <mxGeometry relative="1" as="geometry" />
        </mxCell>
        <mxCell id="THiAGr0LOXGZYbE1Zooo-61" value="type" style="ellipse;whiteSpace=wrap;html=1;align=center;" vertex="1" parent="1">
          <mxGeometry x="268.75" y="120" width="42.5" height="40" as="geometry" />
        </mxCell>
        <mxCell id="THiAGr0LOXGZYbE1Zooo-67" style="edgeStyle=orthogonalEdgeStyle;rounded=0;orthogonalLoop=1;jettySize=auto;html=1;exitX=1;exitY=0.5;exitDx=0;exitDy=0;entryX=0;entryY=0.25;entryDx=0;entryDy=0;" edge="1" parent="1" source="THiAGr0LOXGZYbE1Zooo-62" target="THiAGr0LOXGZYbE1Zooo-1">
          <mxGeometry relative="1" as="geometry" />
        </mxCell>
        <mxCell id="THiAGr0LOXGZYbE1Zooo-62" value="username" style="ellipse;whiteSpace=wrap;html=1;align=center;" vertex="1" parent="1">
          <mxGeometry x="-97.5" y="110" width="65" height="40" as="geometry" />
        </mxCell>
        <mxCell id="THiAGr0LOXGZYbE1Zooo-66" style="edgeStyle=orthogonalEdgeStyle;rounded=0;orthogonalLoop=1;jettySize=auto;html=1;exitX=1;exitY=0.5;exitDx=0;exitDy=0;entryX=0.25;entryY=0;entryDx=0;entryDy=0;" edge="1" parent="1" source="THiAGr0LOXGZYbE1Zooo-63" target="THiAGr0LOXGZYbE1Zooo-1">
          <mxGeometry relative="1" as="geometry" />
        </mxCell>
        <mxCell id="THiAGr0LOXGZYbE1Zooo-63" value="password" style="ellipse;whiteSpace=wrap;html=1;align=center;" vertex="1" parent="1">
          <mxGeometry x="-95" y="50" width="60" height="40" as="geometry" />
        </mxCell>
        <mxCell id="THiAGr0LOXGZYbE1Zooo-65" style="edgeStyle=orthogonalEdgeStyle;rounded=0;orthogonalLoop=1;jettySize=auto;html=1;exitX=0.5;exitY=1;exitDx=0;exitDy=0;entryX=0.5;entryY=0;entryDx=0;entryDy=0;" edge="1" parent="1" source="THiAGr0LOXGZYbE1Zooo-64" target="THiAGr0LOXGZYbE1Zooo-1">
          <mxGeometry relative="1" as="geometry" />
        </mxCell>
        <mxCell id="THiAGr0LOXGZYbE1Zooo-64" value="email" style="ellipse;whiteSpace=wrap;html=1;align=center;" vertex="1" parent="1">
          <mxGeometry x="90" y="10" width="40" height="40" as="geometry" />
        </mxCell>
        <mxCell id="THiAGr0LOXGZYbE1Zooo-73" value="Appointments" style="whiteSpace=wrap;html=1;align=center;" vertex="1" parent="1">
          <mxGeometry x="480" y="470" width="100" height="40" as="geometry" />
        </mxCell>
        <mxCell id="THiAGr0LOXGZYbE1Zooo-75" value="" style="edgeStyle=orthogonalEdgeStyle;rounded=0;orthogonalLoop=1;jettySize=auto;html=1;" edge="1" parent="1" source="THiAGr0LOXGZYbE1Zooo-74" target="THiAGr0LOXGZYbE1Zooo-73">
          <mxGeometry relative="1" as="geometry" />
        </mxCell>
        <mxCell id="THiAGr0LOXGZYbE1Zooo-74" value="appointment_id" style="ellipse;whiteSpace=wrap;html=1;align=center;fontStyle=4;" vertex="1" parent="1">
          <mxGeometry x="690" y="470" width="100" height="40" as="geometry" />
        </mxCell>
        <mxCell id="THiAGr0LOXGZYbE1Zooo-81" style="edgeStyle=orthogonalEdgeStyle;rounded=0;orthogonalLoop=1;jettySize=auto;html=1;exitX=0;exitY=0.5;exitDx=0;exitDy=0;entryX=1;entryY=0.75;entryDx=0;entryDy=0;" edge="1" parent="1" source="THiAGr0LOXGZYbE1Zooo-76" target="THiAGr0LOXGZYbE1Zooo-73">
          <mxGeometry relative="1" as="geometry" />
        </mxCell>
        <mxCell id="THiAGr0LOXGZYbE1Zooo-76" value="department_id" style="ellipse;whiteSpace=wrap;html=1;align=center;" vertex="1" parent="1">
          <mxGeometry x="697.5" y="570" width="85" height="40" as="geometry" />
        </mxCell>
        <mxCell id="THiAGr0LOXGZYbE1Zooo-80" style="edgeStyle=orthogonalEdgeStyle;rounded=0;orthogonalLoop=1;jettySize=auto;html=1;exitX=0;exitY=0.5;exitDx=0;exitDy=0;entryX=1;entryY=0;entryDx=0;entryDy=0;" edge="1" parent="1" source="THiAGr0LOXGZYbE1Zooo-77" target="THiAGr0LOXGZYbE1Zooo-73">
          <mxGeometry relative="1" as="geometry" />
        </mxCell>
        <mxCell id="THiAGr0LOXGZYbE1Zooo-77" value="doctor_id" style="ellipse;whiteSpace=wrap;html=1;align=center;" vertex="1" parent="1">
          <mxGeometry x="707.5" y="300" width="65" height="40" as="geometry" />
        </mxCell>
        <mxCell id="THiAGr0LOXGZYbE1Zooo-79" style="edgeStyle=orthogonalEdgeStyle;rounded=0;orthogonalLoop=1;jettySize=auto;html=1;exitX=0;exitY=0.5;exitDx=0;exitDy=0;entryX=1;entryY=0.25;entryDx=0;entryDy=0;" edge="1" parent="1" source="THiAGr0LOXGZYbE1Zooo-78" target="THiAGr0LOXGZYbE1Zooo-73">
          <mxGeometry relative="1" as="geometry" />
        </mxCell>
        <mxCell id="THiAGr0LOXGZYbE1Zooo-78" value="account_id" style="ellipse;whiteSpace=wrap;html=1;align=center;" vertex="1" parent="1">
          <mxGeometry x="707.5" y="390" width="65" height="40" as="geometry" />
        </mxCell>
        <mxCell id="THiAGr0LOXGZYbE1Zooo-83" style="edgeStyle=orthogonalEdgeStyle;rounded=0;orthogonalLoop=1;jettySize=auto;html=1;exitX=0;exitY=0.5;exitDx=0;exitDy=0;entryX=1;entryY=1;entryDx=0;entryDy=0;" edge="1" parent="1" source="THiAGr0LOXGZYbE1Zooo-82" target="THiAGr0LOXGZYbE1Zooo-73">
          <mxGeometry relative="1" as="geometry" />
        </mxCell>
        <mxCell id="THiAGr0LOXGZYbE1Zooo-82" value="hospital_id" style="ellipse;whiteSpace=wrap;html=1;align=center;" vertex="1" parent="1">
          <mxGeometry x="707.5" y="670" width="65" height="40" as="geometry" />
        </mxCell>
        <mxCell id="THiAGr0LOXGZYbE1Zooo-93" style="edgeStyle=orthogonalEdgeStyle;rounded=0;orthogonalLoop=1;jettySize=auto;html=1;exitX=0.5;exitY=1;exitDx=0;exitDy=0;" edge="1" parent="1" source="THiAGr0LOXGZYbE1Zooo-84" target="THiAGr0LOXGZYbE1Zooo-73">
          <mxGeometry relative="1" as="geometry" />
        </mxCell>
        <mxCell id="THiAGr0LOXGZYbE1Zooo-84" value="description" style="ellipse;whiteSpace=wrap;html=1;align=center;" vertex="1" parent="1">
          <mxGeometry x="430" y="280" width="70" height="40" as="geometry" />
        </mxCell>
        <mxCell id="THiAGr0LOXGZYbE1Zooo-90" style="edgeStyle=orthogonalEdgeStyle;rounded=0;orthogonalLoop=1;jettySize=auto;html=1;exitX=0.5;exitY=0;exitDx=0;exitDy=0;entryX=0.5;entryY=1;entryDx=0;entryDy=0;" edge="1" parent="1" source="THiAGr0LOXGZYbE1Zooo-85" target="THiAGr0LOXGZYbE1Zooo-73">
          <mxGeometry relative="1" as="geometry" />
        </mxCell>
        <mxCell id="THiAGr0LOXGZYbE1Zooo-85" value="duration" style="ellipse;whiteSpace=wrap;html=1;align=center;" vertex="1" parent="1">
          <mxGeometry x="500" y="790" width="60" height="40" as="geometry" />
        </mxCell>
        <mxCell id="THiAGr0LOXGZYbE1Zooo-89" style="edgeStyle=orthogonalEdgeStyle;rounded=0;orthogonalLoop=1;jettySize=auto;html=1;exitX=0;exitY=0.5;exitDx=0;exitDy=0;entryX=0.75;entryY=1;entryDx=0;entryDy=0;" edge="1" parent="1" source="THiAGr0LOXGZYbE1Zooo-86" target="THiAGr0LOXGZYbE1Zooo-73">
          <mxGeometry relative="1" as="geometry" />
        </mxCell>
        <mxCell id="THiAGr0LOXGZYbE1Zooo-86" value="status" style="ellipse;whiteSpace=wrap;html=1;align=center;" vertex="1" parent="1">
          <mxGeometry x="630" y="740" width="50" height="40" as="geometry" />
        </mxCell>
        <mxCell id="THiAGr0LOXGZYbE1Zooo-88" style="edgeStyle=orthogonalEdgeStyle;rounded=0;orthogonalLoop=1;jettySize=auto;html=1;exitX=0.5;exitY=1;exitDx=0;exitDy=0;entryX=0.75;entryY=0;entryDx=0;entryDy=0;" edge="1" parent="1" source="THiAGr0LOXGZYbE1Zooo-87" target="THiAGr0LOXGZYbE1Zooo-73">
          <mxGeometry relative="1" as="geometry" />
        </mxCell>
        <mxCell id="THiAGr0LOXGZYbE1Zooo-87" value="appointment_datetime" style="ellipse;whiteSpace=wrap;html=1;align=center;" vertex="1" parent="1">
          <mxGeometry x="490" y="230" width="130" height="40" as="geometry" />
        </mxCell>
        <mxCell id="THiAGr0LOXGZYbE1Zooo-94" value="Hospitals" style="whiteSpace=wrap;html=1;align=center;" vertex="1" parent="1">
          <mxGeometry x="480" y="940" width="100" height="40" as="geometry" />
        </mxCell>
        <mxCell id="THiAGr0LOXGZYbE1Zooo-96" value="" style="edgeStyle=orthogonalEdgeStyle;rounded=0;orthogonalLoop=1;jettySize=auto;html=1;" edge="1" parent="1" source="THiAGr0LOXGZYbE1Zooo-95" target="THiAGr0LOXGZYbE1Zooo-94">
          <mxGeometry relative="1" as="geometry" />
        </mxCell>
        <mxCell id="THiAGr0LOXGZYbE1Zooo-95" value="hospital_id" style="ellipse;whiteSpace=wrap;html=1;align=center;fontStyle=4;" vertex="1" parent="1">
          <mxGeometry x="690" y="940" width="100" height="40" as="geometry" />
        </mxCell>
        <mxCell id="THiAGr0LOXGZYbE1Zooo-102" style="edgeStyle=orthogonalEdgeStyle;rounded=0;orthogonalLoop=1;jettySize=auto;html=1;exitX=0;exitY=0.5;exitDx=0;exitDy=0;entryX=1;entryY=1;entryDx=0;entryDy=0;" edge="1" parent="1" source="THiAGr0LOXGZYbE1Zooo-97" target="THiAGr0LOXGZYbE1Zooo-94">
          <mxGeometry relative="1" as="geometry" />
        </mxCell>
        <mxCell id="THiAGr0LOXGZYbE1Zooo-97" value="image" style="ellipse;whiteSpace=wrap;html=1;align=center;" vertex="1" parent="1">
          <mxGeometry x="713.75" y="1120" width="52.5" height="40" as="geometry" />
        </mxCell>
        <mxCell id="THiAGr0LOXGZYbE1Zooo-101" style="edgeStyle=orthogonalEdgeStyle;rounded=0;orthogonalLoop=1;jettySize=auto;html=1;exitX=0;exitY=0.5;exitDx=0;exitDy=0;entryX=1;entryY=0.75;entryDx=0;entryDy=0;" edge="1" parent="1" source="THiAGr0LOXGZYbE1Zooo-98" target="THiAGr0LOXGZYbE1Zooo-94">
          <mxGeometry relative="1" as="geometry" />
        </mxCell>
        <mxCell id="THiAGr0LOXGZYbE1Zooo-98" value="hospital_location" style="ellipse;whiteSpace=wrap;html=1;align=center;" vertex="1" parent="1">
          <mxGeometry x="690" y="1040" width="100" height="40" as="geometry" />
        </mxCell>
        <mxCell id="THiAGr0LOXGZYbE1Zooo-100" style="edgeStyle=orthogonalEdgeStyle;rounded=0;orthogonalLoop=1;jettySize=auto;html=1;exitX=0;exitY=0.5;exitDx=0;exitDy=0;entryX=1;entryY=0.25;entryDx=0;entryDy=0;" edge="1" parent="1" source="THiAGr0LOXGZYbE1Zooo-99" target="THiAGr0LOXGZYbE1Zooo-94">
          <mxGeometry relative="1" as="geometry" />
        </mxCell>
        <mxCell id="THiAGr0LOXGZYbE1Zooo-99" value="hospital_name" style="ellipse;whiteSpace=wrap;html=1;align=center;" vertex="1" parent="1">
          <mxGeometry x="697.5" y="860" width="85" height="40" as="geometry" />
        </mxCell>
        <mxCell id="THiAGr0LOXGZYbE1Zooo-103" value="Admins" style="whiteSpace=wrap;html=1;align=center;" vertex="1" parent="1">
          <mxGeometry x="-710" y="1290" width="100" height="40" as="geometry" />
        </mxCell>
        <mxCell id="THiAGr0LOXGZYbE1Zooo-104" value="" style="edgeStyle=orthogonalEdgeStyle;rounded=0;orthogonalLoop=1;jettySize=auto;html=1;" edge="1" parent="1" source="THiAGr0LOXGZYbE1Zooo-105" target="THiAGr0LOXGZYbE1Zooo-103">
          <mxGeometry relative="1" as="geometry" />
        </mxCell>
        <mxCell id="THiAGr0LOXGZYbE1Zooo-105" value="admin_id" style="ellipse;whiteSpace=wrap;html=1;align=center;fontStyle=4;" vertex="1" parent="1">
          <mxGeometry x="-500" y="1290" width="100" height="40" as="geometry" />
        </mxCell>
        <mxCell id="THiAGr0LOXGZYbE1Zooo-106" style="edgeStyle=orthogonalEdgeStyle;rounded=0;orthogonalLoop=1;jettySize=auto;html=1;exitX=0;exitY=0.5;exitDx=0;exitDy=0;entryX=1;entryY=1;entryDx=0;entryDy=0;" edge="1" parent="1" source="THiAGr0LOXGZYbE1Zooo-107" target="THiAGr0LOXGZYbE1Zooo-103">
          <mxGeometry relative="1" as="geometry" />
        </mxCell>
        <mxCell id="THiAGr0LOXGZYbE1Zooo-107" value="admin_phno" style="ellipse;whiteSpace=wrap;html=1;align=center;" vertex="1" parent="1">
          <mxGeometry x="-490.62" y="1470" width="81.25" height="40" as="geometry" />
        </mxCell>
        <mxCell id="THiAGr0LOXGZYbE1Zooo-108" style="edgeStyle=orthogonalEdgeStyle;rounded=0;orthogonalLoop=1;jettySize=auto;html=1;exitX=0;exitY=0.5;exitDx=0;exitDy=0;entryX=1;entryY=0.75;entryDx=0;entryDy=0;" edge="1" parent="1" source="THiAGr0LOXGZYbE1Zooo-109" target="THiAGr0LOXGZYbE1Zooo-103">
          <mxGeometry relative="1" as="geometry" />
        </mxCell>
        <mxCell id="THiAGr0LOXGZYbE1Zooo-109" value="admin_email" style="ellipse;whiteSpace=wrap;html=1;align=center;" vertex="1" parent="1">
          <mxGeometry x="-492.5" y="1390" width="85" height="40" as="geometry" />
        </mxCell>
        <mxCell id="THiAGr0LOXGZYbE1Zooo-110" style="edgeStyle=orthogonalEdgeStyle;rounded=0;orthogonalLoop=1;jettySize=auto;html=1;exitX=0;exitY=0.5;exitDx=0;exitDy=0;entryX=1;entryY=0.25;entryDx=0;entryDy=0;" edge="1" parent="1" source="THiAGr0LOXGZYbE1Zooo-111" target="THiAGr0LOXGZYbE1Zooo-103">
          <mxGeometry relative="1" as="geometry" />
        </mxCell>
        <mxCell id="THiAGr0LOXGZYbE1Zooo-111" value="admin_name" style="ellipse;whiteSpace=wrap;html=1;align=center;" vertex="1" parent="1">
          <mxGeometry x="-492.5" y="1210" width="85" height="40" as="geometry" />
        </mxCell>
        <mxCell id="THiAGr0LOXGZYbE1Zooo-112" value="Billing" style="whiteSpace=wrap;html=1;align=center;" vertex="1" parent="1">
          <mxGeometry x="-140" y="1310" width="100" height="40" as="geometry" />
        </mxCell>
        <mxCell id="THiAGr0LOXGZYbE1Zooo-113" value="" style="edgeStyle=orthogonalEdgeStyle;rounded=0;orthogonalLoop=1;jettySize=auto;html=1;" edge="1" parent="1" source="THiAGr0LOXGZYbE1Zooo-114" target="THiAGr0LOXGZYbE1Zooo-112">
          <mxGeometry relative="1" as="geometry" />
        </mxCell>
        <mxCell id="THiAGr0LOXGZYbE1Zooo-114" value="bill_id" style="ellipse;whiteSpace=wrap;html=1;align=center;fontStyle=4;" vertex="1" parent="1">
          <mxGeometry x="70" y="1310" width="100" height="40" as="geometry" />
        </mxCell>
        <mxCell id="THiAGr0LOXGZYbE1Zooo-115" style="edgeStyle=orthogonalEdgeStyle;rounded=0;orthogonalLoop=1;jettySize=auto;html=1;exitX=0;exitY=0.5;exitDx=0;exitDy=0;entryX=1;entryY=1;entryDx=0;entryDy=0;" edge="1" parent="1" source="THiAGr0LOXGZYbE1Zooo-116" target="THiAGr0LOXGZYbE1Zooo-112">
          <mxGeometry relative="1" as="geometry" />
        </mxCell>
        <mxCell id="THiAGr0LOXGZYbE1Zooo-116" value="amount" style="ellipse;whiteSpace=wrap;html=1;align=center;" vertex="1" parent="1">
          <mxGeometry x="93.75" y="1490" width="52.5" height="40" as="geometry" />
        </mxCell>
        <mxCell id="THiAGr0LOXGZYbE1Zooo-117" style="edgeStyle=orthogonalEdgeStyle;rounded=0;orthogonalLoop=1;jettySize=auto;html=1;exitX=0;exitY=0.5;exitDx=0;exitDy=0;entryX=1;entryY=0.75;entryDx=0;entryDy=0;" edge="1" parent="1" source="THiAGr0LOXGZYbE1Zooo-118" target="THiAGr0LOXGZYbE1Zooo-112">
          <mxGeometry relative="1" as="geometry" />
        </mxCell>
        <mxCell id="THiAGr0LOXGZYbE1Zooo-118" value="appointment_id" style="ellipse;whiteSpace=wrap;html=1;align=center;" vertex="1" parent="1">
          <mxGeometry x="70" y="1410" width="100" height="40" as="geometry" />
        </mxCell>
        <mxCell id="THiAGr0LOXGZYbE1Zooo-119" style="edgeStyle=orthogonalEdgeStyle;rounded=0;orthogonalLoop=1;jettySize=auto;html=1;exitX=0;exitY=0.5;exitDx=0;exitDy=0;entryX=1;entryY=0.25;entryDx=0;entryDy=0;" edge="1" parent="1" source="THiAGr0LOXGZYbE1Zooo-120" target="THiAGr0LOXGZYbE1Zooo-112">
          <mxGeometry relative="1" as="geometry" />
        </mxCell>
        <mxCell id="THiAGr0LOXGZYbE1Zooo-120" value="date_of_billing" style="ellipse;whiteSpace=wrap;html=1;align=center;" vertex="1" parent="1">
          <mxGeometry x="77.5" y="1230" width="85" height="40" as="geometry" />
        </mxCell>
        <mxCell id="THiAGr0LOXGZYbE1Zooo-121" value="Departments" style="whiteSpace=wrap;html=1;align=center;" vertex="1" parent="1">
          <mxGeometry x="220" y="1140" width="100" height="40" as="geometry" />
        </mxCell>
        <mxCell id="THiAGr0LOXGZYbE1Zooo-122" value="" style="edgeStyle=orthogonalEdgeStyle;rounded=0;orthogonalLoop=1;jettySize=auto;html=1;" edge="1" parent="1" source="THiAGr0LOXGZYbE1Zooo-123" target="THiAGr0LOXGZYbE1Zooo-121">
          <mxGeometry relative="1" as="geometry" />
        </mxCell>
        <mxCell id="THiAGr0LOXGZYbE1Zooo-123" value="department_id" style="ellipse;whiteSpace=wrap;html=1;align=center;fontStyle=4;" vertex="1" parent="1">
          <mxGeometry x="430" y="1140" width="100" height="40" as="geometry" />
        </mxCell>
        <mxCell id="THiAGr0LOXGZYbE1Zooo-126" style="edgeStyle=orthogonalEdgeStyle;rounded=0;orthogonalLoop=1;jettySize=auto;html=1;exitX=0;exitY=0.5;exitDx=0;exitDy=0;entryX=1;entryY=0.75;entryDx=0;entryDy=0;" edge="1" parent="1" source="THiAGr0LOXGZYbE1Zooo-127" target="THiAGr0LOXGZYbE1Zooo-121">
          <mxGeometry relative="1" as="geometry" />
        </mxCell>
        <mxCell id="THiAGr0LOXGZYbE1Zooo-127" value="department_name" style="ellipse;whiteSpace=wrap;html=1;align=center;" vertex="1" parent="1">
          <mxGeometry x="430" y="1240" width="110" height="40" as="geometry" />
        </mxCell>
        <mxCell id="THiAGr0LOXGZYbE1Zooo-130" value="Book" style="shape=rhombus;perimeter=rhombusPerimeter;whiteSpace=wrap;html=1;align=center;" vertex="1" parent="1">
          <mxGeometry x="210" y="460" width="120" height="60" as="geometry" />
        </mxCell>
        <mxCell id="THiAGr0LOXGZYbE1Zooo-133" value="" style="endArrow=none;html=1;rounded=0;dashed=1;dashPattern=1 2;entryX=0.5;entryY=0;entryDx=0;entryDy=0;" edge="1" parent="1" target="THiAGr0LOXGZYbE1Zooo-130">
          <mxGeometry relative="1" as="geometry">
            <mxPoint x="-440" y="318.95" as="sourcePoint" />
            <mxPoint x="-280" y="318.95" as="targetPoint" />
          </mxGeometry>
        </mxCell>
        <mxCell id="THiAGr0LOXGZYbE1Zooo-134" value="N" style="resizable=0;html=1;whiteSpace=wrap;align=right;verticalAlign=bottom;" connectable="0" vertex="1" parent="THiAGr0LOXGZYbE1Zooo-133">
          <mxGeometry x="1" relative="1" as="geometry">
            <mxPoint x="-350" y="-70" as="offset" />
          </mxGeometry>
        </mxCell>
        <mxCell id="THiAGr0LOXGZYbE1Zooo-137" value="." style="endArrow=none;html=1;rounded=0;dashed=1;dashPattern=1 2;exitX=1;exitY=0.5;exitDx=0;exitDy=0;entryX=0.5;entryY=1;entryDx=0;entryDy=0;" edge="1" parent="1" source="THiAGr0LOXGZYbE1Zooo-38" target="THiAGr0LOXGZYbE1Zooo-130">
          <mxGeometry relative="1" as="geometry">
            <mxPoint x="-50" y="590" as="sourcePoint" />
            <mxPoint x="110" y="590" as="targetPoint" />
          </mxGeometry>
        </mxCell>
        <mxCell id="THiAGr0LOXGZYbE1Zooo-138" value="N" style="resizable=0;html=1;whiteSpace=wrap;align=right;verticalAlign=bottom;" connectable="0" vertex="1" parent="THiAGr0LOXGZYbE1Zooo-137">
          <mxGeometry x="1" relative="1" as="geometry">
            <mxPoint x="-350" y="200" as="offset" />
          </mxGeometry>
        </mxCell>
        <mxCell id="THiAGr0LOXGZYbE1Zooo-139" value="Details" style="shape=rhombus;perimeter=rhombusPerimeter;whiteSpace=wrap;html=1;align=center;" vertex="1" parent="1">
          <mxGeometry x="-170" y="460" width="120" height="60" as="geometry" />
        </mxCell>
        <mxCell id="THiAGr0LOXGZYbE1Zooo-140" value="" style="endArrow=none;html=1;rounded=0;entryX=0;entryY=0.5;entryDx=0;entryDy=0;exitX=1;exitY=0.5;exitDx=0;exitDy=0;" edge="1" parent="1" source="THiAGr0LOXGZYbE1Zooo-130" target="THiAGr0LOXGZYbE1Zooo-73">
          <mxGeometry relative="1" as="geometry">
            <mxPoint x="40" y="460" as="sourcePoint" />
            <mxPoint x="200" y="460" as="targetPoint" />
          </mxGeometry>
        </mxCell>
        <mxCell id="THiAGr0LOXGZYbE1Zooo-141" value="1" style="resizable=0;html=1;whiteSpace=wrap;align=right;verticalAlign=bottom;" connectable="0" vertex="1" parent="THiAGr0LOXGZYbE1Zooo-140">
          <mxGeometry x="1" relative="1" as="geometry">
            <mxPoint x="-75" as="offset" />
          </mxGeometry>
        </mxCell>
        <mxCell id="THiAGr0LOXGZYbE1Zooo-142" value="" style="endArrow=none;html=1;rounded=0;exitX=1;exitY=0.75;exitDx=0;exitDy=0;entryX=0.5;entryY=0;entryDx=0;entryDy=0;" edge="1" parent="1" source="THiAGr0LOXGZYbE1Zooo-2" target="THiAGr0LOXGZYbE1Zooo-139">
          <mxGeometry relative="1" as="geometry">
            <mxPoint x="-90" y="470" as="sourcePoint" />
            <mxPoint x="70" y="470" as="targetPoint" />
          </mxGeometry>
        </mxCell>
        <mxCell id="THiAGr0LOXGZYbE1Zooo-143" value="1" style="resizable=0;html=1;whiteSpace=wrap;align=right;verticalAlign=bottom;" connectable="0" vertex="1" parent="THiAGr0LOXGZYbE1Zooo-142">
          <mxGeometry x="1" relative="1" as="geometry">
            <mxPoint x="-150" y="-60" as="offset" />
          </mxGeometry>
        </mxCell>
        <mxCell id="THiAGr0LOXGZYbE1Zooo-144" value="" style="endArrow=none;html=1;rounded=0;exitX=1;exitY=0.25;exitDx=0;exitDy=0;entryX=0.5;entryY=1;entryDx=0;entryDy=0;" edge="1" parent="1" source="THiAGr0LOXGZYbE1Zooo-38" target="THiAGr0LOXGZYbE1Zooo-139">
          <mxGeometry relative="1" as="geometry">
            <mxPoint x="-90" y="580" as="sourcePoint" />
            <mxPoint x="70" y="580" as="targetPoint" />
          </mxGeometry>
        </mxCell>
        <mxCell id="THiAGr0LOXGZYbE1Zooo-145" value="1" style="resizable=0;html=1;whiteSpace=wrap;align=right;verticalAlign=bottom;" connectable="0" vertex="1" parent="THiAGr0LOXGZYbE1Zooo-144">
          <mxGeometry x="1" relative="1" as="geometry">
            <mxPoint x="-150" y="190" as="offset" />
          </mxGeometry>
        </mxCell>
        <mxCell id="THiAGr0LOXGZYbE1Zooo-146" value="" style="endArrow=none;html=1;rounded=0;exitX=1;exitY=0.5;exitDx=0;exitDy=0;entryX=0.5;entryY=1;entryDx=0;entryDy=0;" edge="1" parent="1" source="THiAGr0LOXGZYbE1Zooo-139" target="THiAGr0LOXGZYbE1Zooo-1">
          <mxGeometry relative="1" as="geometry">
            <mxPoint x="-90" y="470" as="sourcePoint" />
            <mxPoint x="70" y="470" as="targetPoint" />
          </mxGeometry>
        </mxCell>
        <mxCell id="THiAGr0LOXGZYbE1Zooo-147" value="1" style="resizable=0;html=1;whiteSpace=wrap;align=right;verticalAlign=bottom;" connectable="0" vertex="1" parent="THiAGr0LOXGZYbE1Zooo-146">
          <mxGeometry x="1" relative="1" as="geometry">
            <mxPoint x="-70" y="110" as="offset" />
          </mxGeometry>
        </mxCell>
        <mxCell id="THiAGr0LOXGZYbE1Zooo-148" value="Payment" style="shape=rhombus;perimeter=rhombusPerimeter;whiteSpace=wrap;html=1;align=center;" vertex="1" parent="1">
          <mxGeometry x="-150" y="1000" width="120" height="60" as="geometry" />
        </mxCell>
        <mxCell id="THiAGr0LOXGZYbE1Zooo-149" value="" style="endArrow=none;html=1;rounded=0;exitX=0.5;exitY=1;exitDx=0;exitDy=0;entryX=0.5;entryY=0;entryDx=0;entryDy=0;" edge="1" parent="1" source="THiAGr0LOXGZYbE1Zooo-148" target="THiAGr0LOXGZYbE1Zooo-112">
          <mxGeometry relative="1" as="geometry">
            <mxPoint x="100" y="890" as="sourcePoint" />
            <mxPoint x="260" y="890" as="targetPoint" />
          </mxGeometry>
        </mxCell>
        <mxCell id="THiAGr0LOXGZYbE1Zooo-150" value="1" style="resizable=0;html=1;whiteSpace=wrap;align=right;verticalAlign=bottom;" connectable="0" vertex="1" parent="THiAGr0LOXGZYbE1Zooo-149">
          <mxGeometry x="1" relative="1" as="geometry">
            <mxPoint y="-150" as="offset" />
          </mxGeometry>
        </mxCell>
        <mxCell id="THiAGr0LOXGZYbE1Zooo-151" value="" style="endArrow=none;html=1;rounded=0;exitX=0.5;exitY=0;exitDx=0;exitDy=0;entryX=0;entryY=1;entryDx=0;entryDy=0;" edge="1" parent="1" source="THiAGr0LOXGZYbE1Zooo-148" target="THiAGr0LOXGZYbE1Zooo-73">
          <mxGeometry relative="1" as="geometry">
            <mxPoint x="100" y="850" as="sourcePoint" />
            <mxPoint x="260" y="850" as="targetPoint" />
          </mxGeometry>
        </mxCell>
        <mxCell id="THiAGr0LOXGZYbE1Zooo-152" value="1" style="resizable=0;html=1;whiteSpace=wrap;align=right;verticalAlign=bottom;" connectable="0" vertex="1" parent="THiAGr0LOXGZYbE1Zooo-151">
          <mxGeometry x="1" relative="1" as="geometry">
            <mxPoint x="-270" y="230" as="offset" />
          </mxGeometry>
        </mxCell>
        <mxCell id="THiAGr0LOXGZYbE1Zooo-153" value="Registered" style="shape=rhombus;perimeter=rhombusPerimeter;whiteSpace=wrap;html=1;align=center;" vertex="1" parent="1">
          <mxGeometry x="60" y="890" width="120" height="60" as="geometry" />
        </mxCell>
        <mxCell id="THiAGr0LOXGZYbE1Zooo-154" value="" style="endArrow=none;html=1;rounded=0;exitX=1;exitY=1;exitDx=0;exitDy=0;entryX=0;entryY=0.5;entryDx=0;entryDy=0;" edge="1" parent="1" source="THiAGr0LOXGZYbE1Zooo-38" target="THiAGr0LOXGZYbE1Zooo-153">
          <mxGeometry relative="1" as="geometry">
            <mxPoint x="150" y="830" as="sourcePoint" />
            <mxPoint x="310" y="830" as="targetPoint" />
          </mxGeometry>
        </mxCell>
        <mxCell id="THiAGr0LOXGZYbE1Zooo-155" value="1" style="resizable=0;html=1;whiteSpace=wrap;align=right;verticalAlign=bottom;" connectable="0" vertex="1" parent="THiAGr0LOXGZYbE1Zooo-154">
          <mxGeometry x="1" relative="1" as="geometry">
            <mxPoint x="-220" y="-20" as="offset" />
          </mxGeometry>
        </mxCell>
        <mxCell id="THiAGr0LOXGZYbE1Zooo-156" value="" style="endArrow=none;html=1;rounded=0;exitX=1;exitY=0.5;exitDx=0;exitDy=0;entryX=0;entryY=0.5;entryDx=0;entryDy=0;" edge="1" parent="1" source="THiAGr0LOXGZYbE1Zooo-153" target="THiAGr0LOXGZYbE1Zooo-94">
          <mxGeometry relative="1" as="geometry">
            <mxPoint x="150" y="830" as="sourcePoint" />
            <mxPoint x="310" y="830" as="targetPoint" />
          </mxGeometry>
        </mxCell>
        <mxCell id="THiAGr0LOXGZYbE1Zooo-157" value="1" style="resizable=0;html=1;whiteSpace=wrap;align=right;verticalAlign=bottom;" connectable="0" vertex="1" parent="THiAGr0LOXGZYbE1Zooo-156">
          <mxGeometry x="1" relative="1" as="geometry">
            <mxPoint x="-140" y="-20" as="offset" />
          </mxGeometry>
        </mxCell>
        <mxCell id="THiAGr0LOXGZYbE1Zooo-158" value="" style="endArrow=none;html=1;rounded=0;exitX=0.5;exitY=1;exitDx=0;exitDy=0;entryX=0;entryY=0;entryDx=0;entryDy=0;" edge="1" parent="1" source="THiAGr0LOXGZYbE1Zooo-153" target="THiAGr0LOXGZYbE1Zooo-121">
          <mxGeometry relative="1" as="geometry">
            <mxPoint x="120" y="1150" as="sourcePoint" />
            <mxPoint x="280" y="1150" as="targetPoint" />
          </mxGeometry>
        </mxCell>
        <mxCell id="THiAGr0LOXGZYbE1Zooo-159" value="1" style="resizable=0;html=1;whiteSpace=wrap;align=right;verticalAlign=bottom;" connectable="0" vertex="1" parent="THiAGr0LOXGZYbE1Zooo-158">
          <mxGeometry x="1" relative="1" as="geometry">
            <mxPoint x="-40" y="-90" as="offset" />
          </mxGeometry>
        </mxCell>
      </root>
    </mxGraphModel>
  </diagram>
</mxfile>
